PathFileType	4	(X/Y/Z)	RBDS017\RBDS017runT35.trc
DataRate	CameraRate	NumFrames	NumMarkers	Units	OrigDataRate	OrigDataStartFrame	OrigNumFrames
150.000000	150.000000	5	33	mm	150.000000	562	4500
Frame#	Time	L.ASIS			L.Heel.Bottom			L.Heel.Lateral			L.Heel.Top			L.Iliac.Crest			L.MT1			L.MT5			L.PSIS			L.Shank.Bottom.Lateral			L.Shank.Bottom.Medial			L.Shank.Top.Lateral			L.Shank.Top.Medial			L.Thigh.Bottom.Lateral			L.Thigh.Bottom.Medial			L.Thigh.Top.Lateral			L.Thigh.Top.Medial			R.ASIS			R.ASY			R.Heel.Bottom			R.Heel.Lateral			R.Heel.Top			R.Iliac.Crest			R.MT1			R.MT5			R.PSIS			R.Shank.Bottom.Lateral			R.Shank.Bottom.Medial			R.Shank.Top.Lateral			R.Shank.Top.Medial			R.Thigh.Bottom.Lateral			R.Thigh.Bottom.Medial			R.Thigh.Top.Lateral			R.Thigh.Top.Medial			
		X1	Y1	Z1	X2	Y2	Z2	X3	Y3	Z3	X4	Y4	Z4	X5	Y5	Z5	X6	Y6	Z6	X7	Y7	Z7	X8	Y8	Z8	X9	Y9	Z9	X10	Y10	Z10	X11	Y11	Z11	X12	Y12	Z12	X13	Y13	Z13	X14	Y14	Z14	X15	Y15	Z15	X16	Y16	Z16	X17	Y17	Z17	X18	Y18	Z18	X19	Y19	Z19	X20	Y20	Z20	X21	Y21	Z21	X22	Y22	Z22	X23	Y23	Z23	X24	Y24	Z24	X25	Y25	Z25	X26	Y26	Z26	X27	Y27	Z27	X28	Y28	Z28	X29	Y29	Z29	X30	Y30	Z30	X31	Y31	Z31	X32	Y32	Z32	X33	Y33	Z33	

563	3.746666666666667	2189.618260233558	1022.073154298714	881.5722147521712	1703.006243379813	91.66934045753244	987.0442307614065	1724.615019478264	104.362456227231	948.0993728708598	1723.570041186873	132.4665613205479	987.8425491328128	2127.872954336083	1116.241840159495	846.9454365355958	1921.899922848207	44.73738392238761	995.6310514894905	1869.801361306303	44.0147552825066	891.8610546196693	2025.257388320623	1107.470925613662	979.6094204690573	1840.686850248788	217.8300731725579	923.1080884202471	1803.007528346066	241.8361669450788	955.6905506674809	1872.160545940603	290.0743999845915	906.4663637129058	1834.926820457135	314.1050464644788	937.3037843625726	2061.657995541201	647.2503454041569	867.2521289722803	1996.913435349881	650.5306147140655	899.7861445839152	2056.506177571539	756.7208768878785	853.6228919483875	1997.842193246691	760.6119205979253	888.3978987816182	2194.58193819977	1027.320168388544	1166.854039709449	1987.492284253335	228.2628950077326	1117.884677559242	1884.184714346429	403.3684235176439	1088.598001653162	1903.89727025385	386.4362102168548	1133.090316730704	1930.630896558005	407.4295934471469	1098.590804815342	2141.929374328055	1116.171200552227	1206.473680679891	1973.956893725098	199.1544053789623	1067.792598371037	1929.288202167697	225.8290893616046	1171.643551142718	2026.773305330819	1102.295531561428	1080.885879798873	2037.582229638837	410.0172107145864	1160.756774553373	2020.8708358886	442.1230628769779	1124.35245191535	2104.665938710314	460.7940834733453	1172.544488600837	2082.729458622046	493.0545248455714	1136.316176831665	2282.047205444201	690.9561457474412	1203.900601173348	2235.009184366026	654.7452833241975	1161.030215902071	2208.992766277207	771.4863066355164	1212.277575599566	2162.068999605913	736.2106016354858	1174.624577521332	
564	3.753333333333333	2191.754022417182	1025.860901182501	882.5731808547723	1684.859133234625	103.5629494116927	985.9166079433187	1706.917866011338	114.1468769900012	946.6259730598148	1707.322888439183	143.1063092054759	985.7344113923557	2134.029022116159	1121.26595446286	847.5569586595871	1899.723754035514	45.47918842110663	995.3476314015968	1847.852988691969	44.93622953729077	891.6182399086174	2027.956201475456	1112.925348940985	978.9925738045023	1823.362984420649	225.6227592374497	920.9633998156503	1786.252456486004	249.1892202951036	954.4900913861394	1854.684872496409	298.0385769124948	904.935597418673	1817.986696727821	321.6871670749701	936.5961008161308	2050.073016616658	653.7009189659829	867.0592049936984	1985.820535119842	659.4032729827984	900.2064222916525	2048.975734774291	763.306823273991	853.6657106021555	1990.911676644173	769.4235270785243	889.130270113445	2196.87069890514	1033.769224699806	1166.401172138398	2013.442448284558	216.4461195169184	1118.775222792019	1898.554448196624	383.6324981576393	1086.135169717946	1919.019753425648	368.6605720235818	1130.97693104495	1944.584516377812	391.0819140607843	1096.561159793583	2144.724898401901	1122.604550141117	1206.601966461103	2002.565178591776	185.808228043963	1068.955202675993	1955.067440436934	210.6120261599768	1171.918341359993	2028.727745940329	1108.127306975776	1080.721742316922	2051.389522437159	400.9386551028843	1159.565650473402	2033.111512608216	431.7145289252741	1122.78740702525	2115.326598063002	455.7124643473164	1171.283551616189	2091.66780958191	486.3982584526853	1134.757344132093	2286.64229568563	699.0328301159997	1203.750236013825	2239.549323050003	662.4239538351528	1161.291817288427	2212.887099396435	778.8797229211282	1212.92564555972	2166.0243936086	743.2389654185071	1175.523349695869	
565	3.76	2194.018345961047	1029.660659452482	883.6855590266872	1667.995986935504	116.36450049083	984.6622328685319	1690.40750033595	124.707026028779	945.0287829847161	1692.487824794475	154.4414065403222	983.4665667251284	2140.457276332555	1126.429423536195	848.2262440316459	1878.198721118914	46.4510322733528	994.9110865988388	1826.394987599669	46.21954522827998	891.2899298291115	2030.775789642483	1118.384311921543	978.3643584110591	1807.097129928736	233.7596512670061	918.5994215093967	1770.618049947488	256.8027109472108	953.147873184795	1838.221633578376	306.3890414050128	903.2706540923705	1802.117207031709	329.5697496876226	935.8452521023449	2039.15393107879	660.4923614284741	866.7073158241802	1975.50376131142	668.4870538762743	900.5161643658985	2041.965372513444	770.0998492842936	853.6113529548427	1984.584184034218	778.3021185166621	889.7812790668787	2199.231180812546	1040.361607029263	1165.960769986449	2040.049396136607	204.9381039424987	1119.759339700911	1914.203274222964	363.510435084393	1083.739091709846	1935.18351517912	350.4939885375541	1128.942263376451	1959.576768162616	374.280320982608	1094.616145248592	2147.340550767401	1129.15691961622	1206.85987732881	2031.894513531223	172.9712399593151	1070.255224021928	1981.54169007634	195.6473605859688	1172.234003116759	2030.776056397579	1113.987938778822	1080.503805940472	2065.573966771884	391.50686553291	1158.457367185349	2045.85786271878	420.7813395820093	1121.221702447067	2126.069713299505	450.1551569901498	1170.071107320024	2100.823642681117	479.086013716167	1133.157933106998	2290.524005123998	706.5927047454771	1203.470397909491	2243.238248553744	669.6620301833062	1161.524054261313	2216.311302495065	786.0005444706492	1213.412486193897	2169.442578855353	750.1130522774779	1176.24259650788	
566	3.766666666666667	2196.380617615488	1033.446271268169	884.9047237317244	1652.421518991366	129.926083691129	983.3142843027713	1675.051525006433	135.9644447463563	943.344167253176	1679.015845247322	166.3428204913832	981.090762449693	2147.040342430366	1131.682634900344	848.9821278917407	1857.378840553194	47.72797093571145	994.2317963634198	1805.43088653919	48.01152927479864	890.8281238958282	2033.664743304253	1123.780758243533	977.7320960599145	1791.884851119546	242.1484979563318	916.0580661955944	1756.093357375599	264.6102595608442	951.677665680547	1822.81678391288	315.0127337233505	901.5035370701794	1787.354301143658	337.6649740515263	935.0542024991141	2028.97817619379	667.4827708666305	866.2064653915335	1966.020321810062	677.6090905455386	900.7110294005764	2035.500277786506	776.977304424466	853.4701796775372	1978.867021727894	787.0934170551363	890.3576204857513	2201.595099020387	1046.987198743522	1165.552584556719	2067.28319797459	193.8177911141604	1120.835598893289	1931.165138464772	343.1464699293899	1081.445337968936	1952.432003776326	332.0487825634997	1127.016336460875	1975.643881408983	357.1415989017103	1092.782097527906	2149.723498010459	1135.768897127128	1207.238751352824	2061.88370353853	160.7383308964448	1071.689072184297	2008.704222480109	181.0061350136184	1172.60200302863	2032.883813558266	1119.806560012084	1080.22757024286	2080.177801074513	381.7577554439184	1157.453163016778	2059.160376400102	409.3835807048071	1119.690385738909	2136.943058095524	444.1209341989784	1168.940851187946	2110.269222196499	471.13789329414	1131.557119809441	2293.678686405026	713.5274114610792	1203.033706464459	2246.066743076404	676.3384903824249	1161.707537064569	2219.241759553871	792.7326427301685	1213.699056567317	2172.283550873039	756.7012261697326	1176.77003706081	
567	3.773333333333333	2198.800685924679	1037.196985002082	886.2145779960856	1638.078256425579	144.0909109739375	981.9294400337169	1660.760898538921	147.8444868084539	941.6302948731749	1666.790258070213	178.6860349731203	978.68430986058	2153.641791169695	1136.970472233592	849.8510803703651	1837.281532358143	49.40634034237642	993.2120940424329	1784.943393898143	50.4903224223782	890.1773235516366	2036.566509699557	1129.053259351036	977.1058128302047	1777.678277781808	250.7200053871805	913.4041699176593	1742.621824419832	272.5751665418686	950.1125162271427	1808.479112068858	323.8131792472997	899.6812145105923	1773.696237047628	345.9092283398498	934.2362315845561	2019.611490540599	674.5321319063446	865.5812331797802	1957.41307179083	686.6028017586011	900.8027549041212	2029.596513388698	783.8230271849054	853.2622146356117	1973.755526490028	795.6547826901973	890.8753654070387	2203.893190957901	1053.520542025025	1165.196105962979	2095.098211035833	183.1717943710826	1122.00262159208	1949.440175283093	322.675542502804	1079.284566290728	1970.78395274596	313.4343021091221	1125.224182536902	1992.787907162083	339.7822608544697	1091.082655166314	2151.852694107172	1142.374051692216	1207.716222971937	2092.468887477254	149.2122462422553	1073.247708056255	2036.550886192131	166.7682015258252	1173.034121831515	2035.012869665466	1125.512260976641	1079.894808615557	2095.22652357696	371.7354397198873	1156.574397830494	2073.044709707685	397.5960381176607	1118.234095634276	2147.980413681782	437.6171964049256	1167.929864211093	2120.055893345146	462.5900836475264	1130.004680373323	2296.092193945899	719.7380096706282	1202.427005724295	2248.029519758069	682.3480286591374	1161.827354644627	2221.653908057378	798.9630578875084	1213.75891988463	2174.510611729423	762.8774628139965	1177.101289781076	
